<?xml version="1.0" standalone="no"?>
<!DOCTYPE svg PUBLIC "-//W3C//DTD SVG 20010904//EN"
 "http://www.w3.org/TR/2001/REC-SVG-20010904/DTD/svg10.dtd">
<svg version="1.0" xmlns="http://www.w3.org/2000/svg"
 width="500.000000pt" height="500.000000pt" viewBox="0 0 500.000000 500.000000"
 preserveAspectRatio="xMidYMid meet">
<metadata>
Created by potrace 1.14, written by Peter Selinger 2001-2017
</metadata>
<g transform="translate(0.000000,500.000000) scale(0.100000,-0.100000)"
fill="#000000" stroke="none">
<path d="M1270 3933 c-1 -16 -137 -534 -142 -539 -3 -2 -59 7 -124 22 -167 38
-192 37 -220 -4 -24 -35 -66 -198 -114 -444 -16 -87 -30 -159 -30 -161 0 -2
-20 -17 -45 -32 -55 -35 -98 -95 -129 -177 -59 -157 -315 -1263 -324 -1400 -4
-76 -4 -77 27 -109 l32 -32 1049 5 1049 6 45 22 c28 13 54 36 68 58 32 52 87
111 117 127 28 14 173 6 222 -13 38 -15 86 -59 130 -119 80 -108 179 -121 339
-45 47 23 420 161 829 306 409 146 752 273 762 282 27 24 49 78 49 119 0 23
-18 74 -49 138 -66 139 -228 501 -386 862 l-132 300 -44 13 -44 14 -64 172
c-36 94 -71 186 -78 204 l-14 33 -51 -45 c-72 -63 -152 -103 -265 -133 -91
-23 -121 -26 -423 -33 -344 -9 -415 -17 -532 -65 -65 -26 -130 -70 -172 -114
l-30 -31 -32 60 c-98 184 -234 272 -535 346 -299 73 -452 152 -637 329 -86 82
-102 94 -102 78z m190 -254 c139 -101 287 -162 520 -214 173 -39 267 -70 335
-110 59 -34 142 -119 192 -197 l44 -68 -9 -108 c-4 -59 -5 -149 -1 -201 11
-127 18 -133 44 -36 18 71 20 187 3 267 -11 53 -10 60 8 85 34 46 115 101 188
128 121 45 234 56 559 53 247 -1 304 1 371 16 102 23 168 48 240 91 32 19 61
35 65 35 7 0 40 -89 133 -355 91 -261 134 -373 224 -584 46 -106 84 -195 84
-196 0 -14 -145 -107 -225 -145 -188 -89 -309 -106 -629 -89 -396 21 -565 -9
-754 -135 -79 -52 -194 -170 -231 -236 -13 -24 -19 -40 -12 -36 7 4 11 0 11
-11 1 -17 2 -17 15 1 8 11 15 30 15 42 0 13 5 26 10 29 6 3 10 -3 10 -15 0
-20 1 -21 25 -3 22 15 43 64 38 84 -1 4 7 15 19 25 21 19 21 19 13 -1 -4 -11
-10 -34 -13 -52 -2 -19 -13 -38 -26 -47 -26 -17 -122 -153 -114 -161 3 -4 16
10 28 29 36 60 130 135 225 182 103 50 135 58 60 15 -27 -16 -70 -47 -95 -70
l-45 -42 59 37 c92 57 199 103 305 132 94 25 102 26 456 27 334 1 367 3 465
24 185 40 329 112 430 215 54 56 44 60 -16 8 -89 -80 -243 -142 -411 -167
-105 -16 -316 -19 -559 -9 l-150 7 15 33 c19 39 40 45 33 9 -6 -33 9 -32 30 3
l17 27 1 -25 1 -25 19 24 c11 13 20 18 20 11 0 -7 7 -10 17 -6 9 4 20 1 24 -6
7 -10 11 -10 21 0 8 8 55 12 159 12 86 0 182 6 234 15 155 27 312 101 418 196
l52 47 47 -52 c35 -38 47 -46 48 -32 0 10 -18 36 -40 59 -37 37 -39 41 -25 57
15 16 14 26 -9 117 -50 195 -150 454 -241 620 l-34 61 31 -9 c17 -4 32 -10 33
-11 1 -2 19 -50 40 -108 53 -147 405 -1092 410 -1100 5 -8 -356 -148 -800
-312 -325 -120 -681 -239 -789 -264 -77 -18 -80 -18 -90 0 -76 127 -142 175
-281 202 -11 2 -67 5 -125 6 -87 1 -113 -2 -152 -19 -57 -26 -131 -93 -164
-149 l-24 -42 -748 -6 c-411 -3 -845 -8 -964 -11 l-218 -5 1 22 c0 21 1 21 8
4 6 -16 13 -10 40 38 18 32 36 68 41 81 l9 23 78 -20 c90 -22 338 -36 393 -21
28 8 9 11 -105 16 -132 7 -341 30 -350 39 -3 2 3 28 12 57 13 38 21 51 33 47
8 -2 33 -12 55 -20 22 -8 54 -15 70 -15 28 1 27 2 -20 25 -27 13 -59 24 -70
24 -38 1 -43 12 -28 63 11 39 17 47 31 42 9 -3 62 -19 118 -35 290 -81 418
-65 849 108 176 70 254 95 366 117 102 19 294 19 374 0 72 -17 175 -61 175
-75 0 -5 7 -10 15 -10 8 0 15 -5 15 -11 0 -6 9 -9 20 -6 11 3 18 2 15 -3 -3
-4 13 -26 35 -47 27 -28 42 -37 50 -29 13 13 13 31 0 54 -5 9 -23 53 -40 97
-73 195 -208 360 -350 428 -115 55 -203 67 -479 67 -130 0 -265 5 -301 11 -92
15 -204 54 -285 99 l-70 40 36 -33 c113 -100 325 -177 492 -177 l47 0 -16 -25
c-25 -38 -8 -43 28 -9 l31 29 -31 -47 c-18 -26 -32 -49 -32 -53 0 -14 51 30
74 65 17 26 31 37 41 34 11 -4 -2 -24 -48 -75 -68 -76 -81 -97 -50 -81 22 12
100 95 124 132 9 14 20 22 23 19 4 -4 -19 -43 -50 -88 -31 -45 -54 -84 -51
-87 8 -8 95 95 114 136 11 25 25 40 37 40 21 0 26 7 -63 -102 -34 -43 -59 -78
-55 -78 20 0 99 79 125 126 17 30 38 54 46 54 9 0 -11 -33 -51 -85 -36 -47
-61 -85 -55 -85 19 0 107 97 120 133 8 24 19 37 31 37 24 0 23 -4 -10 -42 -16
-18 -42 -51 -58 -72 -25 -34 -26 -38 -7 -28 31 17 81 69 99 103 9 19 22 29 36
29 20 0 19 -3 -13 -37 -19 -21 -46 -51 -59 -67 l-25 -29 41 23 c23 12 53 41
68 65 21 33 32 42 48 37 17 -4 13 -11 -33 -58 -29 -30 -50 -54 -46 -54 21 0
68 33 96 67 41 50 49 37 10 -16 -43 -58 -30 -62 25 -7 50 49 71 45 33 -6 -34
-46 -40 -58 -29 -58 14 0 72 62 72 77 0 10 5 11 19 3 19 -10 19 -11 -6 -56
-25 -45 -25 -46 -4 -35 12 7 30 25 40 42 25 41 34 25 11 -19 -26 -48 -15 -55
21 -12 31 36 40 26 13 -15 -15 -22 -15 -25 -1 -25 9 0 23 10 31 22 20 29 21
16 1 -22 -18 -35 -10 -38 22 -8 l23 21 0 -21 c0 -14 5 -20 14 -16 11 4 13 0 9
-16 -5 -19 -3 -21 15 -16 17 6 19 3 15 -15 -5 -18 -3 -21 10 -16 15 6 29 -12
98 -128 l23 -40 -48 42 c-146 128 -302 147 -706 87 -163 -25 -215 -28 -440
-29 -309 0 -388 13 -599 102 l-63 27 6 44 c13 93 37 346 51 532 10 140 25 250
54 390 42 211 78 361 89 372 8 8 222 -33 222 -43 0 -4 -24 -38 -53 -75 -29
-38 -66 -87 -82 -109 l-30 -39 32 22 c44 31 100 98 129 155 13 26 29 47 34 47
22 0 16 -9 -175 -259 l-20 -26 30 22 c17 12 44 36 62 55 39 40 123 167 123
185 0 7 7 13 16 13 10 0 14 -6 11 -14 -8 -21 -111 -179 -157 -242 -50 -66 -51
-78 -4 -33 45 43 97 114 135 182 16 28 29 46 29 38 0 -8 -22 -48 -49 -90 -50
-78 -86 -144 -108 -196 l-13 -30 30 35 c16 19 46 63 66 98 20 34 38 62 39 62
10 0 -16 -58 -62 -139 -30 -51 -52 -95 -50 -98 3 -2 21 15 42 39 22 26 35 35
31 23 -23 -79 -69 -469 -53 -455 11 11 98 326 122 445 14 68 32 185 41 261 12
112 96 497 129 592 4 9 22 0 57 -30 29 -24 69 -55 88 -69z m2914 -935 c3 -8 2
-12 -4 -9 -6 3 -10 10 -10 16 0 14 7 11 14 -7z m-3747 -81 c-3 -10 -5 -4 -5
12 0 17 2 24 5 18 2 -7 2 -21 0 -30z m-32 -58 c-4 -25 -10 -44 -12 -41 -3 3
-2 26 2 51 3 26 9 45 12 42 2 -3 1 -26 -2 -52z m-34 -12 c-12 -20 -14 -14 -5
12 4 9 9 14 11 11 3 -2 0 -13 -6 -23z m3898 -56 c0 -21 -1 -21 -9 -2 -12 28
-12 37 0 30 6 -3 10 -16 9 -28z m-3882 -39 c-3 -8 -6 -5 -6 6 -1 11 2 17 5 13
3 -3 4 -12 1 -19z m-37 -12 c0 -2 -7 -7 -16 -10 -8 -3 -12 -2 -9 4 6 10 25 14
25 6z m3950 -18 c0 -19 -2 -20 -10 -8 -13 19 -13 30 0 30 6 0 10 -10 10 -22z
m-3929 -77 c-6 -39 -11 -80 -10 -93 0 -19 3 -17 15 12 14 34 14 34 10 5 -2
-16 -23 -169 -47 -340 -34 -248 -47 -315 -63 -337 -11 -15 -21 -27 -22 -25 -1
1 4 29 12 62 18 76 54 294 53 320 -1 26 -35 -90 -54 -185 -9 -41 -19 -113 -24
-160 -5 -53 -18 -107 -35 -145 -14 -33 -26 -54 -26 -47 0 13 69 396 131 727
33 180 62 301 67 286 2 -6 -1 -42 -7 -80z m-38 30 c-3 -11 -11 -22 -19 -25
-17 -6 -17 -1 -4 25 14 25 30 25 23 0z m3996 -28 c0 -25 -1 -25 -8 -8 -5 11
-7 23 -4 28 8 14 13 7 12 -20z m-4009 -32 c0 -5 -7 -12 -16 -15 -14 -5 -15 -4
-4 9 14 17 20 19 20 6z m4027 -33 c-3 -7 -5 -2 -5 12 0 14 2 19 5 13 2 -7 2
-19 0 -25z m-4053 -42 c-10 -8 -21 -12 -24 -9 -3 2 4 11 14 19 11 7 22 12 25
9 2 -3 -4 -12 -15 -19z m6 -46 c0 -5 -10 -15 -22 -21 -23 -12 -23 -12 -4 10
21 23 26 26 26 11z m4097 -27 c-3 -10 -5 -4 -5 12 0 17 2 24 5 18 2 -7 2 -21
0 -30z m-4107 -36 c0 -8 -11 -19 -25 -25 -20 -9 -25 -9 -25 2 0 10 26 30 48
35 1 1 2 -5 2 -12z m4156 -75 c-12 -11 -18 7 -10 30 l8 23 4 -23 c2 -13 1 -26
-2 -30z m-4169 13 c-4 -8 -11 -15 -17 -15 -6 0 -6 7 2 20 14 22 24 19 15 -5z
m4209 -82 c-7 -16 -8 -16 -16 -2 -5 8 -6 26 -3 39 6 24 6 24 16 3 5 -12 6 -30
3 -40z m-4223 23 c-5 -22 -40 -43 -52 -30 -4 3 44 50 55 54 1 0 -1 -11 -3 -24z
m-13 -61 c0 -8 -7 -15 -16 -15 -14 0 -14 3 -4 15 7 8 14 15 16 15 2 0 4 -7 4
-15z m4262 -17 c-7 -7 -12 -8 -12 -2 0 14 12 26 19 19 2 -3 -1 -11 -7 -17z
m-1454 -20 c-13 -40 -27 -58 -43 -58 -9 0 -9 11 4 45 10 29 22 45 33 45 15 0
16 -4 6 -32z m62 23 c0 -23 -24 -71 -35 -71 -10 0 -11 9 -3 40 6 22 16 40 24
40 8 0 14 -4 14 -9z m45 -13 c-4 -13 -9 -31 -11 -40 -3 -10 -11 -18 -19 -18
-11 0 -10 8 3 40 18 42 38 55 27 18z m-178 -29 c-11 -30 -27 -52 -34 -45 -1 1
7 21 19 44 24 50 33 51 15 1z m-2557 21 c13 -8 12 -13 -7 -32 l-23 -22 0 32
c0 34 5 38 30 22z m2516 -6 c-3 -9 -9 -26 -12 -39 -5 -21 -31 -41 -40 -32 -9
8 32 87 45 87 8 0 11 -6 7 -16z m-2710 -22 c-6 -18 -44 -37 -54 -27 -2 2 9 15
24 29 32 27 39 27 30 -2z m2640 -13 c-11 -36 -29 -58 -48 -59 -3 0 3 23 15 50
26 63 51 70 33 9z m-2386 11 c0 -5 -4 -11 -9 -15 -5 -3 -31 -33 -57 -68 -44
-59 -47 -60 -40 -28 3 18 22 51 41 72 19 22 35 43 35 49 0 5 7 7 15 4 8 -4 15
-10 15 -14z m2282 -47 c-23 -63 -42 -69 -28 -9 6 26 17 47 26 50 8 2 16 4 17
5 2 0 -5 -20 -15 -46z m-2271 14 c-10 -9 -11 -8 -5 6 3 10 9 15 12 12 3 -3 0
-11 -7 -18z m1332 3 c-3 -12 -14 -20 -26 -20 -19 0 -20 1 -2 20 10 11 21 20
26 20 4 0 5 -9 2 -20z m90 0 c-4 -16 -14 -20 -45 -20 l-40 0 23 20 c33 27 69
27 62 0z m125 11 l24 -6 -26 -24 c-27 -26 -48 -22 -26 4 21 26 2 30 -30 7 -36
-27 -68 -21 -42 8 17 19 58 23 100 11z m-1515 -32 c-24 -42 -48 -61 -28 -23 8
16 15 35 15 42 0 6 7 12 16 12 13 0 13 -4 -3 -31z m1228 8 c-10 -9 -11 -8 -5
6 3 10 9 15 12 12 3 -3 0 -11 -7 -18z m-1181 7 c0 -7 -80 -124 -85 -124 -2 0
12 26 31 57 19 31 34 60 34 65 0 4 5 8 10 8 6 0 10 -2 10 -6z m1130 -9 c-7 -8
-17 -15 -22 -15 -6 0 -5 7 2 15 7 8 17 15 22 15 6 0 5 -7 -2 -15z m414 7 c10
-16 -23 -50 -43 -45 -19 5 -19 7 -4 29 15 24 37 31 47 16z m589 -39 c-3 -23
-11 -44 -18 -47 -16 -6 -8 75 9 86 15 10 15 8 9 -39z m-2489 23 c-3 -7 -17
-19 -32 -26 l-27 -12 24 26 c27 28 43 34 35 12z m399 8 c3 -4 -18 -38 -46 -78
-100 -136 -103 -140 -79 -127 33 17 93 92 119 148 17 36 28 50 39 46 11 -4 7
-15 -21 -52 -65 -87 -116 -161 -111 -161 3 0 25 17 48 38 l43 37 -29 -38 c-15
-21 -26 -41 -23 -44 11 -10 98 90 130 148 30 54 47 73 47 50 0 -6 -29 -53 -64
-105 -35 -53 -60 -96 -56 -96 17 0 101 104 122 151 21 46 40 60 52 41 7 -11
-113 -191 -136 -206 -13 -7 -41 -4 -112 13 l-96 23 46 51 c25 29 57 78 72 109
25 54 39 67 55 52z m1025 -6 c-3 -7 -13 -15 -24 -17 -16 -3 -17 -1 -5 13 16
19 34 21 29 4z m1162 -7 c0 -10 -9 -21 -20 -24 -18 -5 -18 -4 -3 19 19 29 23
30 23 5z m-1239 -11 c-21 -19 -41 -26 -41 -16 0 12 33 36 48 36 14 -1 12 -5
-7 -20z m599 13 c0 -10 -32 -43 -42 -43 -5 0 -1 11 9 25 17 23 33 32 33 18z
m-1495 -57 c-15 -20 -29 -36 -31 -36 -1 0 7 20 19 45 12 25 26 40 31 35 5 -5
-3 -24 -19 -44z m825 34 c-6 -11 -16 -20 -22 -20 -6 0 -3 9 7 20 10 11 20 20
22 20 2 0 -1 -9 -7 -20z m-70 -25 c-13 -14 -28 -25 -34 -25 -5 0 3 13 19 30
16 16 31 28 33 25 3 -3 -5 -16 -18 -30z m780 32 c0 -2 -12 -14 -26 -28 l-27
-24 18 28 c14 22 35 36 35 24z m450 -16 c0 -28 -18 -71 -30 -71 -8 0 -6 41 6
78 6 19 24 14 24 -7z m-2230 -51 c-46 -67 -43 -76 8 -27 l35 32 -37 -52 c-40
-56 -66 -61 -66 -12 0 20 13 40 48 73 26 25 48 46 50 46 1 0 -16 -27 -38 -60z
m939 25 c-21 -35 -48 -51 -30 -17 5 9 12 25 15 35 3 9 12 17 20 17 13 0 12 -6
-5 -35z m3191 14 c0 -11 -4 -17 -10 -14 -5 3 -10 13 -10 21 0 8 5 14 10 14 6
0 10 -9 10 -21z m-3706 -1 c-4 -7 -34 -53 -67 -101 -32 -49 -57 -91 -54 -93 8
-8 86 85 117 140 18 31 38 56 47 56 17 0 17 0 -63 -117 l-64 -91 -51 0 -51 -1
52 55 c28 29 62 79 76 109 18 40 31 55 45 55 13 0 18 -4 13 -12z m455 -30
c-17 -24 -39 -46 -50 -50 -22 -8 -23 -5 -9 20 5 9 14 29 20 45 7 21 16 27 40
27 l30 0 -31 -42z m931 34 c0 -5 -9 -17 -20 -27 -23 -21 -26 -14 -8 15 13 20
28 27 28 12z m2358 -55 c-6 -15 -15 -30 -21 -34 -7 -4 -8 0 -3 13 4 10 10 35
13 54 5 28 8 30 13 15 4 -11 3 -32 -2 -48z m-4388 44 c0 -5 -7 -12 -16 -15
-14 -5 -15 -4 -4 9 14 17 20 19 20 6z m683 -96 c-47 -76 -71 -105 -85 -105
-16 0 -12 8 24 48 24 27 56 74 71 105 15 32 34 57 41 57 9 0 -11 -40 -51 -105z
m115 97 c-1 -4 -29 -49 -62 -100 -41 -64 -64 -92 -78 -92 -16 0 -13 8 21 48
22 26 51 71 66 100 14 29 33 52 41 52 9 0 14 -4 12 -8z m72 3 c0 -9 -113 -169
-125 -177 -34 -25 -30 1 10 56 25 35 50 78 56 95 8 23 17 31 35 31 13 0 24 -2
24 -5z m60 -1 c0 -9 -101 -148 -114 -156 -26 -18 -27 -6 -2 25 14 17 40 56 57
85 17 28 37 52 45 52 8 0 14 -3 14 -6z m34 -46 c-41 -60 -80 -98 -96 -98 -7 0
0 12 15 28 14 15 35 48 47 75 17 38 26 47 46 47 l26 0 -38 -52z m50 -2 c-44
-67 -75 -83 -33 -19 16 26 29 53 29 60 0 7 9 13 20 13 18 0 17 -5 -16 -54z
m1078 -20 c-4 -7 -8 -5 -10 6 -3 15 -7 16 -23 7 -18 -9 -19 -8 -7 10 11 19 14
19 30 4 10 -9 14 -21 10 -27z m2215 -3 c-3 -10 -5 -4 -5 12 0 17 2 24 5 18 2
-7 2 -21 0 -30z m-4317 9 c0 -10 -12 -22 -30 -29 -37 -14 -38 -6 -2 24 33 27
32 27 32 5z m4277 -19 c-3 -10 -5 -4 -5 12 0 17 2 24 5 18 2 -7 2 -21 0 -30z
m-4006 -11 c-23 -33 -51 -58 -51 -46 0 8 60 74 68 74 2 0 -6 -13 -17 -28z
m3966 6 c-3 -8 -6 -5 -6 6 -1 11 2 17 5 13 3 -3 4 -12 1 -19z m-2090 -44 c10
-7 12 -13 6 -17 -19 -12 -46 29 -37 55 l8 23 4 -25 c2 -13 11 -29 19 -36z
m2059 30 c-5 -14 -9 -15 -19 -5 -9 9 -9 14 3 21 18 11 24 6 16 -16z m-57 -25
c-9 -5 -15 -4 -18 2 -2 6 3 15 10 20 9 5 15 4 18 -2 2 -6 -3 -15 -10 -20z
m171 21 c0 -5 -4 -10 -10 -10 -5 0 -10 5 -10 10 0 6 5 10 10 10 6 0 10 -4 10
-10z m-4330 -8 c0 -5 -12 -14 -27 -21 l-28 -11 24 20 c26 22 31 24 31 12z
m4110 -27 c0 -8 -4 -15 -9 -15 -13 0 -22 16 -14 24 11 11 23 6 23 -9z m110 -5
c0 -5 -5 -10 -11 -10 -5 0 -7 5 -4 10 3 6 8 10 11 10 2 0 4 -4 4 -10z m-160
-15 c0 -8 -2 -15 -4 -15 -2 0 -6 7 -10 15 -3 8 -1 15 4 15 6 0 10 -7 10 -15z
m-4070 -9 c0 -8 -16 -23 -35 -35 -44 -26 -45 -15 -3 21 39 32 38 32 38 14z
m4175 4 c-3 -5 -12 -10 -18 -10 -7 0 -6 4 3 10 19 12 23 12 15 0z m-168 -32
c-3 -7 -5 -2 -5 12 0 14 2 19 5 13 2 -7 2 -19 0 -25z m118 12 c-3 -5 -12 -10
-18 -10 -7 0 -6 4 3 10 19 12 23 12 15 0z m-141 -52 c-12 -19 -24 -5 -24 25
l1 32 13 -25 c8 -14 12 -28 10 -32z m-57 -20 c-21 -13 -27 -9 -27 21 0 16 6
31 13 34 17 5 30 -45 14 -55z m-3943 18 c-3 -9 -10 -13 -15 -10 -5 3 -9 0 -9
-5 0 -6 -5 -11 -12 -11 -6 0 -1 11 12 25 25 27 34 27 24 1z m3856 -26 c0 -16
-4 -30 -8 -30 -5 0 -7 14 -4 30 2 17 6 30 8 30 2 0 4 -13 4 -30z m31 -13 c-8
-8 -11 -7 -11 4 0 20 13 34 18 19 3 -7 -1 -17 -7 -23z m-72 -4 c0 -25 -1 -26
-9 -8 -12 27 -12 35 0 35 6 0 10 -12 9 -27z m-50 -37 c-9 -8 -10 -7 -5 7 3 10
7 26 7 35 1 9 4 6 6 -7 3 -13 -1 -28 -8 -35z m-29 9 c0 -14 -4 -25 -10 -25 -5
0 -10 11 -10 25 0 14 5 25 10 25 6 0 10 -11 10 -25z m-50 -20 c0 -14 -4 -25
-9 -25 -4 0 -6 11 -3 25 2 14 6 25 8 25 2 0 4 -11 4 -25z m-37 -15 c3 -11 1
-20 -4 -20 -5 0 -9 9 -9 20 0 11 2 20 4 20 2 0 6 -9 9 -20z m-3688 0 c-3 -5
-16 -15 -28 -21 -19 -9 -19 -8 3 10 28 23 34 26 25 11z m3619 -22 c-8 -27 -12
-33 -19 -27 -7 8 7 49 17 49 5 0 6 -10 2 -22z m-84 -33 c0 -14 -4 -25 -9 -25
-4 0 -6 11 -3 25 2 14 6 25 8 25 2 0 4 -11 4 -25z m-3569 -41 c-23 -25 -31
-30 -31 -17 0 20 53 79 58 63 2 -6 -10 -26 -27 -46z m3529 26 c0 -11 -4 -20
-10 -20 -5 0 -10 9 -10 20 0 11 5 20 10 20 6 0 10 -9 10 -20z m-47 -14 c-3
-14 -11 -27 -18 -30 -9 -3 -11 2 -7 17 4 17 18 35 28 37 1 0 -1 -11 -3 -24z
m-1204 -39 c1 -5 -3 -5 -9 -2 -5 3 -10 16 -9 28 0 21 1 21 9 2 5 -11 9 -24 9
-28z m40 0 c1 -5 -3 -5 -9 -2 -5 3 -10 16 -9 28 0 21 1 21 9 2 5 -11 9 -24 9
-28z m57 -5 c-11 -10 -15 4 -8 28 l7 25 3 -23 c2 -13 1 -26 -2 -30z m1051 11
c-3 -10 -5 -4 -5 12 0 17 2 24 5 18 2 -7 2 -21 0 -30z m-1213 -23 c-7 -6 -24
22 -23 40 0 9 6 5 14 -10 7 -14 11 -27 9 -30z m234 25 c-6 -14 -13 -23 -16
-21 -7 7 9 46 18 46 5 0 4 -11 -2 -25z m33 -16 c-5 -13 -10 -19 -10 -12 -1 15
10 45 15 40 3 -2 0 -15 -5 -28z m909 11 c0 -11 -4 -20 -10 -20 -5 0 -10 9 -10
20 0 11 5 20 10 20 6 0 10 -9 10 -20z m-1207 -44 c-8 -11 -33 22 -33 43 0 11
6 9 19 -9 11 -13 17 -29 14 -34z m337 24 c-6 -12 -14 -19 -17 -17 -2 3 1 15 7
27 6 12 14 19 17 17 2 -3 -1 -15 -7 -27z m-2506 -8 c-5 -16 -64 -58 -64 -45 0
9 52 63 61 63 4 0 5 -8 3 -18z m3296 4 c0 -16 -18 -31 -27 -22 -8 8 5 36 17
36 5 0 10 -6 10 -14z m-1160 -40 c0 -6 -7 -1 -15 10 -8 10 -15 23 -15 28 0 6
7 1 15 -10 8 -10 15 -23 15 -28z m443 38 c8 -9 -15 -44 -30 -44 -10 0 -10 6
-1 25 11 25 19 30 31 19z m657 -19 c0 -8 -7 -15 -15 -15 -16 0 -20 12 -8 23
11 12 23 8 23 -8z m-60 -15 c0 -5 -5 -10 -11 -10 -5 0 -7 5 -4 10 3 6 8 10 11
10 2 0 4 -4 4 -10z m-570 -21 c-7 -11 -14 -18 -17 -15 -8 8 5 36 17 36 7 0 7
-6 0 -21z m-2641 -39 c-46 -38 -51 -28 -8 16 18 19 35 30 37 24 3 -7 -11 -24
-29 -40z m3166 40 c-3 -5 -10 -10 -16 -10 -5 0 -9 5 -9 10 0 6 7 10 16 10 8 0
12 -4 9 -10z m-491 -42 c-9 -14 -23 2 -17 18 4 12 8 13 14 3 4 -7 5 -17 3 -21z
m-583 -53 c-6 -11 -19 29 -19 60 -1 11 5 5 12 -15 7 -19 10 -39 7 -45z m989
71 c0 -3 -4 -8 -10 -11 -5 -3 -10 -1 -10 4 0 6 5 11 10 11 6 0 10 -2 10 -4z
m-50 -16 c0 -5 -5 -10 -11 -10 -5 0 -7 5 -4 10 3 6 8 10 11 10 2 0 4 -4 4 -10z
m-3036 -57 c-31 -46 -34 -49 -34 -35 0 10 48 72 56 72 2 0 -8 -17 -22 -37z
m2910 12 c-4 -8 -8 -15 -10 -15 -2 0 -4 7 -4 15 0 8 4 15 10 15 5 0 7 -7 4
-15z m-2814 -20 c-13 -14 -27 -25 -32 -25 -15 0 26 49 41 50 10 0 7 -8 -9 -25z
m58 5 c-7 -11 -17 -20 -22 -20 -5 0 -1 9 9 20 10 11 20 20 22 20 2 0 -2 -9 -9
-20z m122 10 c0 -5 -5 -10 -11 -10 -5 0 -7 5 -4 10 3 6 8 10 11 10 2 0 4 -4 4
-10z m70 6 c0 -2 -7 -7 -16 -10 -8 -3 -12 -2 -9 4 6 10 25 14 25 6z m37 -2
c-3 -3 -12 -4 -19 -1 -8 3 -5 6 6 6 11 1 17 -2 13 -5z m63 -4 c0 -5 -9 -10
-20 -10 -11 0 -20 5 -20 10 0 6 9 10 20 10 11 0 20 -4 20 -10z m44 -5 c-4 -8
-10 -12 -15 -9 -11 6 -2 24 11 24 5 0 7 -7 4 -15z m46 6 c0 -6 -4 -13 -10 -16
-5 -3 -10 1 -10 9 0 9 5 16 10 16 6 0 10 -4 10 -9z m31 -14 c-10 -9 -11 -8 -5
6 3 10 9 15 12 12 3 -3 0 -11 -7 -18z m84 -7 c-20 -23 -29 -21 -19 4 3 9 13
16 22 16 13 0 12 -3 -3 -20z m55 14 c0 -12 -21 -44 -29 -44 -5 0 -6 11 -3 25
2 14 11 25 18 25 8 0 14 -3 14 -6z m38 -19 c-6 -14 -15 -25 -19 -25 -4 0 -2
11 4 25 7 14 15 25 19 25 4 0 2 -11 -4 -25z m45 10 c-3 -9 -8 -14 -10 -11 -3
3 -2 9 2 15 9 16 15 13 8 -4z m41 -10 c-19 -30 -26 -28 -17 3 3 12 12 22 19
22 12 0 11 -5 -2 -25z m40 0 c-9 -14 -18 -25 -20 -25 -2 0 2 11 8 25 6 14 15
25 20 25 5 0 1 -11 -8 -25z m54 0 c-12 -27 -34 -35 -24 -9 3 9 6 20 6 25 0 5
7 9 15 9 12 0 13 -4 3 -25z m50 0 c-6 -14 -15 -25 -20 -25 -11 0 -10 7 2 31
16 28 32 23 18 -6z m62 16 c0 -21 -13 -41 -26 -41 -17 0 -17 5 -4 31 11 20 30
26 30 10z m45 -20 c-3 -12 -13 -21 -21 -21 -12 0 -12 4 2 25 19 29 29 27 19
-4z m43 4 c-6 -14 -15 -25 -20 -25 -5 0 -1 11 8 25 9 14 18 25 20 25 2 0 -2
-11 -8 -25z m62 17 c0 -15 -28 -47 -35 -40 -8 8 13 48 25 48 6 0 10 -4 10 -8z
m64 -7 c-4 -8 -8 -15 -10 -15 -2 0 -4 7 -4 15 0 8 4 15 10 15 5 0 7 -7 4 -15z
m39 -13 c-3 -12 -9 -22 -14 -22 -12 0 -11 7 2 32 13 25 20 19 12 -10z m68 -15
c-13 -13 -15 1 -4 30 7 17 8 17 11 -1 2 -10 -1 -23 -7 -29z m72 15 c-3 -12 -9
-22 -14 -22 -5 0 -3 11 3 25 13 30 20 28 11 -3z m70 0 c-3 -12 -9 -22 -14 -22
-12 0 -11 7 3 30 15 24 19 21 11 -8z m75 3 c-6 -14 -13 -24 -14 -22 -6 6 9 47
17 47 5 0 3 -11 -3 -25z m52 16 c0 -6 -4 -13 -10 -16 -5 -3 -10 1 -10 9 0 9 5
16 10 16 6 0 10 -4 10 -9z m31 -14 c-10 -9 -11 -8 -5 6 3 10 9 15 12 12 3 -3
0 -11 -7 -18z m63 8 c-4 -8 -10 -15 -15 -15 -5 0 -9 7 -9 15 0 8 7 15 15 15 9
0 12 -6 9 -15z m56 11 c0 -2 -7 -9 -15 -16 -12 -10 -15 -10 -15 4 0 9 7 16 15
16 8 0 15 -2 15 -4z m74 -11 c-4 -8 -10 -15 -15 -15 -5 0 -9 7 -9 15 0 8 7 15
15 15 9 0 12 -6 9 -15z m38 -7 c-7 -7 -12 -8 -12 -2 0 14 12 26 19 19 2 -3 -1
-11 -7 -17z m88 1 c-7 -11 -14 -19 -16 -16 -7 7 7 37 17 37 6 0 5 -9 -1 -21z
m90 1 c0 -11 -4 -20 -9 -20 -5 0 -11 9 -14 20 -3 13 0 20 9 20 8 0 14 -9 14
-20z m-50 -5 c0 -8 -4 -15 -10 -15 -5 0 -7 7 -4 15 4 8 8 15 10 15 2 0 4 -7 4
-15z m763 -5 c-3 -11 -9 -20 -14 -20 -11 0 -11 3 -3 24 9 23 23 20 17 -4z
m-2413 -4 c0 -3 -4 -8 -10 -11 -5 -3 -10 -1 -10 4 0 6 5 11 10 11 6 0 10 -2
10 -4z m60 -12 c0 -2 -7 -4 -15 -4 -8 0 -15 4 -15 10 0 5 7 7 15 4 8 -4 15 -8
15 -10z m2480 6 c0 -5 -5 -10 -11 -10 -5 0 -7 5 -4 10 3 6 8 10 11 10 2 0 4
-4 4 -10z m-2667 -7 c-7 -2 -19 -2 -25 0 -7 3 -2 5 12 5 14 0 19 -2 13 -5z
m60 0 c-7 -2 -19 -2 -25 0 -7 3 -2 5 12 5 14 0 19 -2 13 -5z m174 1 c-3 -3
-12 -4 -19 -1 -8 3 -5 6 6 6 11 1 17 -2 13 -5z m2330 -26 c-3 -8 -6 -5 -6 6
-1 11 2 17 5 13 3 -3 4 -12 1 -19z m43 12 c0 -5 -5 -10 -11 -10 -5 0 -7 5 -4
10 3 6 8 10 11 10 2 0 4 -4 4 -10z"/>
<path d="M1378 3613 c30 -56 162 -142 242 -157 28 -6 20 1 -40 34 -41 23 -88
52 -105 64 -16 12 -48 35 -69 52 -34 25 -38 26 -28 7z"/>
<path d="M1348 3573 c56 -78 138 -127 232 -137 l55 -6 -50 19 c-79 29 -147 66
-205 112 -50 39 -52 40 -32 12z"/>
<path d="M953 3268 c-34 -39 -39 -52 -16 -46 21 6 21 6 0 -31 l-22 -36 25 16
c27 17 94 109 85 117 -3 3 -16 -5 -29 -17 -24 -23 -25 -23 -19 -2 7 27 1 27
-24 -1z"/>
<path d="M2371 3188 c46 -46 85 -80 87 -76 8 17 -56 95 -102 126 -26 17 -53
32 -58 32 -6 0 27 -37 73 -82z"/>
<path d="M2795 3158 c-43 -15 -81 -44 -107 -80 -21 -31 -11 -31 24 -1 9 8 49
32 90 54 52 27 66 38 48 38 -14 0 -38 -5 -55 -11z"/>
<path d="M2360 3145 c0 -4 23 -39 50 -78 50 -71 67 -70 30 3 -17 34 -80 92
-80 75z"/>
<path d="M2839 3126 c-67 -27 -101 -51 -154 -107 -44 -46 -42 -45 63 24 40 27
101 62 135 77 78 36 41 41 -44 6z"/>
<path d="M2769 3036 c-47 -17 -78 -39 -100 -73 -30 -45 -22 -48 21 -10 21 20
56 45 77 56 21 11 45 25 53 30 13 10 13 11 0 10 -8 0 -31 -6 -51 -13z"/>
<path d="M2396 2999 c8 -17 24 -45 35 -63 l19 -31 0 32 c0 19 -10 43 -26 62
-33 40 -49 40 -28 0z"/>
<path d="M2372 2912 c101 -129 108 -137 108 -128 0 24 -69 132 -104 162 -61
52 -62 41 -4 -34z"/>
<path d="M2706 2959 c-27 -21 -63 -79 -49 -79 5 1 32 23 62 50 43 39 50 50 34
50 -11 0 -32 -9 -47 -21z"/>
<path d="M2755 2946 c-31 -13 -110 -94 -101 -103 4 -5 146 105 146 113 0 7
-14 4 -45 -10z"/>
<path d="M2825 2916 c-55 -17 -80 -32 -126 -73 -59 -53 -72 -85 -18 -41 44 36
142 89 209 114 l35 13 -30 0 c-16 0 -48 -6 -70 -13z"/>
<path d="M2401 2814 c18 -33 39 -68 47 -79 13 -18 13 -16 7 20 -6 39 -49 105
-74 113 -7 2 2 -22 20 -54z"/>
<path d="M2550 2443 c0 -73 -3 -133 -7 -133 -3 0 -15 7 -25 17 -21 19 -24 4
-7 -30 6 -12 -3 -5 -21 16 -58 69 -74 63 -26 -10 47 -74 76 -128 76 -140 -1
-4 -9 7 -18 25 -21 38 -86 108 -116 124 -18 10 -18 8 3 -18 70 -91 86 -114
113 -168 32 -64 32 -86 -1 -34 -24 38 -67 88 -76 88 -8 0 22 -55 63 -118 32
-48 36 -62 49 -180 7 -70 15 -151 17 -180 10 -123 23 -56 36 179 10 191 1 392
-26 562 -24 151 -33 151 -34 0z"/>
<path d="M1235 2495 c45 -38 128 -65 193 -64 l57 0 -89 25 c-48 13 -109 33
-133 44 -59 26 -65 25 -28 -5z"/>
<path d="M4185 2329 c-64 -41 -185 -93 -247 -104 -21 -4 -38 -10 -38 -14 0 -8
99 2 140 13 18 5 21 4 10 -2 -36 -23 -174 -44 -252 -40 -60 4 -75 2 -61 -6 10
-6 69 -11 138 -11 117 0 122 1 195 36 41 20 93 53 115 73 43 40 39 39 -44 -11
-30 -18 -60 -33 -65 -33 -6 0 14 14 45 31 45 24 148 112 129 108 -3 0 -32 -18
-65 -40z"/>
<path d="M2738 2250 c-24 -18 -44 -61 -30 -60 4 1 27 19 52 40 37 33 41 40 24
40 -12 0 -33 -9 -46 -20z"/>
<path d="M2820 2239 c-46 -21 -104 -69 -122 -103 -7 -13 6 -8 40 17 27 21 76
53 108 72 64 39 48 47 -26 14z"/>
<path d="M2360 2185 c0 -2 20 -31 44 -62 24 -32 58 -82 76 -111 18 -29 34 -51
36 -49 9 9 -28 92 -60 136 -30 41 -96 100 -96 86z"/>
<path d="M2802 2154 c-44 -22 -92 -68 -92 -88 0 -3 26 12 58 33 31 21 73 48
92 60 52 31 7 28 -58 -5z"/>
<path d="M2875 2122 c-89 -38 -156 -85 -177 -126 -11 -20 -10 -21 9 -3 11 10
72 47 134 82 107 61 125 85 34 47z"/>
<path d="M3001 2104 c-80 -21 -184 -80 -241 -136 -27 -27 -50 -54 -50 -61 0
-6 15 3 33 20 48 47 172 119 262 154 44 17 82 33 84 35 9 8 -36 2 -88 -12z"/>
<path d="M4471 1976 c-73 -78 -448 -164 -959 -221 -262 -29 -368 -52 -467
-100 -69 -33 -185 -114 -215 -150 -8 -10 16 5 54 34 159 120 273 155 616 186
227 21 433 56 648 110 197 50 276 82 323 131 18 19 31 34 28 34 -3 0 -16 -11
-28 -24z"/>
<path d="M4515 1893 c-38 -20 -110 -54 -160 -75 -100 -42 -84 -52 28 -18 61
19 170 82 197 115 16 20 16 20 -65 -22z"/>
<path d="M4494 1840 c-61 -31 -149 -71 -195 -88 -90 -33 -82 -42 16 -17 80 20
210 85 260 129 22 19 38 35 35 35 -3 -1 -55 -27 -116 -59z"/>
<path d="M2999 1741 c-48 -19 -126 -69 -147 -94 -7 -8 -21 -13 -31 -10 -34 9
-121 -38 -152 -80 -37 -51 -38 -79 -2 -36 27 32 137 109 156 109 5 0 -2 -15
-15 -32 -31 -41 -71 -118 -64 -125 2 -3 12 10 22 28 29 57 163 181 239 221 74
40 71 49 -6 19z"/>
<path d="M2260 1736 c0 -2 31 -27 70 -55 38 -29 89 -76 112 -106 23 -30 44
-53 46 -51 6 7 -36 82 -64 115 -14 17 -45 42 -68 56 -41 24 -96 47 -96 41z"/>
<path d="M1927 1701 c-60 -13 -51 -16 46 -17 64 0 118 -8 175 -23 46 -13 81
-25 78 -28 -2 -2 -21 0 -42 6 -22 5 -75 12 -119 15 -88 6 -84 4 80 -35 90 -22
187 -64 242 -106 32 -24 35 -25 22 -6 -22 32 -80 76 -128 97 -23 11 -39 21
-37 23 10 10 139 -60 182 -98 42 -38 45 -40 26 -13 -29 42 -84 89 -130 113
-112 57 -302 92 -395 72z"/>
<path d="M2469 1678 c12 -18 35 -59 52 -92 17 -32 32 -56 35 -53 12 12 -22
100 -53 136 -41 49 -64 54 -34 9z"/>
<path d="M3455 1643 c-149 -14 -325 -65 -455 -135 -117 -61 -136 -83 -30 -34
208 98 443 152 685 157 l70 2 -65 7 c-69 8 -139 9 -205 3z"/>
<path d="M1580 1630 c-86 -9 -148 -23 -205 -45 l-40 -15 35 5 c109 15 276 34
348 40 46 4 82 8 80 10 -10 8 -154 11 -218 5z"/>
<path d="M3895 1624 c-47 -13 -120 -22 -440 -59 -217 -24 -407 -84 -495 -156
-15 -12 3 -6 47 15 133 66 232 88 552 126 173 20 327 50 385 76 39 17 15 16
-49 -2z"/>
<path d="M550 1590 c73 -57 226 -87 362 -70 51 6 94 13 97 15 2 3 -45 5 -105
5 -129 0 -214 13 -309 45 -63 22 -68 22 -45 5z"/>
<path d="M3100 1594 c-96 -26 -260 -115 -260 -142 0 -6 306 141 319 154 6 5 5
5 -59 -12z"/>
<path d="M1920 1549 c-47 -4 -139 -19 -205 -34 -282 -61 -356 -75 -465 -85
-63 -6 -158 -9 -210 -6 -85 5 -89 4 -40 -5 32 -6 132 -8 235 -6 161 5 197 9
340 42 403 92 529 97 750 31 11 -4 2 3 -20 13 -85 43 -243 63 -385 50z"/>
<path d="M2131 1496 c10 -10 203 -86 207 -82 7 8 -89 65 -128 76 -35 10 -87
14 -79 6z"/>
<path d="M1975 1401 c-29 -7 -14 -9 260 -26 l70 -4 -45 15 c-50 18 -237 27
-285 15z"/>
<path d="M1110 1361 c0 -13 81 -21 194 -20 143 1 175 14 57 22 -130 10 -251 9
-251 -2z"/>
<path d="M755 1350 c-82 -4 -193 -9 -245 -10 l-95 -2 60 -10 c80 -12 394 -2
475 15 l65 15 -55 -1 c-30 0 -122 -4 -205 -7z"/>
<path d="M1725 1339 c-38 -5 -74 -11 -80 -13 -5 -3 132 -4 305 -5 228 0 308 3
290 11 -33 14 -426 19 -515 7z"/>
</g>
</svg>
